# xmcd
#
# Track frame offsets: 
#        150
#        16154
#        33114
#        51848
#        64399
#        82779
#        101992
#        122574
#        141638
#        154998
#        170108
#        188356
#        203845
#
# Disc length: 2869 seconds
#
# Revision: 2
# Processed by: cddbd v1.5.2PL0 Copyright (c) Steve Scherf et al.
# Submitted via: ExactAudioCopy v0.99pb5
#
DISCID=b00b330d
DTITLE=Vaya Con Dios - Comme On Est Venu...
DYEAR=2010
DGENRE=Jazz
TTITLE0=Les Voiliers Sauvages De Nos Vies
TTITLE1=Matelots
TTITLE2=A En Mourir Pas
TTITLE3=Vingt Ans
TTITLE4=Pauvre Rutebeuf
TTITLE5=La Pirogue De l'Exode
TTITLE6=Il Suffisait d'Y Croire
TTITLE7=Comme On Est Venu...
TTITLE8=Il Restera Toujours
TTITLE9=Pauvre Diable
TTITLE10=Le Compte à Rebours
TTITLE11=La Vie c'Est Pas Du Gâteau
TTITLE12=Charly's Dong
EXTD=
EXTT0=
EXTT1=
EXTT2=
EXTT3=
EXTT4=
EXTT5=
EXTT6=
EXTT7=
EXTT8=
EXTT9=
EXTT10=
EXTT11=
EXTT12=
PLAYORDER=
